<mxfile host="app.diagrams.net" agent="Mozilla/5.0 (Windows NT 10.0; Win64; x64) AppleWebKit/537.36 (KHTML, like Gecko) Chrome/109.0.0.0 Safari/537.36" version="24.8.6">
  <diagram id="2A1QdrttNbgxF8gpdR4p" name="Page-1">
    <mxGraphModel dx="666" dy="534" grid="0" gridSize="10" guides="1" tooltips="1" connect="1" arrows="1" fold="1" page="0" pageScale="1" pageWidth="827" pageHeight="1169" math="0" shadow="0">
      <root>
        <mxCell id="0" />
        <mxCell id="1" parent="0" />
        <mxCell id="eGmOhk9RgXZygRPjZAKJ-1" style="edgeStyle=orthogonalEdgeStyle;rounded=0;orthogonalLoop=1;jettySize=auto;html=1;exitX=0.5;exitY=1;exitDx=0;exitDy=0;entryX=0.5;entryY=0;entryDx=0;entryDy=0;" edge="1" parent="1" source="eGmOhk9RgXZygRPjZAKJ-2" target="eGmOhk9RgXZygRPjZAKJ-4">
          <mxGeometry relative="1" as="geometry" />
        </mxCell>
        <mxCell id="eGmOhk9RgXZygRPjZAKJ-2" value="Start" style="ellipse;whiteSpace=wrap;html=1;fontStyle=1" vertex="1" parent="1">
          <mxGeometry x="260" y="40" width="120" height="80" as="geometry" />
        </mxCell>
        <mxCell id="eGmOhk9RgXZygRPjZAKJ-3" style="edgeStyle=orthogonalEdgeStyle;rounded=0;orthogonalLoop=1;jettySize=auto;html=1;exitX=0.5;exitY=1;exitDx=0;exitDy=0;entryX=0.5;entryY=0;entryDx=0;entryDy=0;" edge="1" parent="1" source="eGmOhk9RgXZygRPjZAKJ-4" target="eGmOhk9RgXZygRPjZAKJ-6">
          <mxGeometry relative="1" as="geometry" />
        </mxCell>
        <mxCell id="eGmOhk9RgXZygRPjZAKJ-4" value="float a;&lt;div&gt;float b;&lt;/div&gt;" style="rounded=1;whiteSpace=wrap;html=1;" vertex="1" parent="1">
          <mxGeometry x="260" y="160" width="120" height="60" as="geometry" />
        </mxCell>
        <mxCell id="eGmOhk9RgXZygRPjZAKJ-5" style="edgeStyle=orthogonalEdgeStyle;rounded=0;orthogonalLoop=1;jettySize=auto;html=1;exitX=0.5;exitY=1;exitDx=0;exitDy=0;entryX=0.5;entryY=0;entryDx=0;entryDy=0;" edge="1" parent="1" source="eGmOhk9RgXZygRPjZAKJ-6" target="eGmOhk9RgXZygRPjZAKJ-9">
          <mxGeometry relative="1" as="geometry" />
        </mxCell>
        <mxCell id="eGmOhk9RgXZygRPjZAKJ-6" value="Nhâp vào a, b" style="shape=parallelogram;perimeter=parallelogramPerimeter;whiteSpace=wrap;html=1;fixedSize=1;" vertex="1" parent="1">
          <mxGeometry x="260" y="270" width="120" height="60" as="geometry" />
        </mxCell>
        <mxCell id="eGmOhk9RgXZygRPjZAKJ-7" value="Yes" style="edgeStyle=orthogonalEdgeStyle;rounded=0;orthogonalLoop=1;jettySize=auto;html=1;exitX=1;exitY=0.5;exitDx=0;exitDy=0;entryX=0;entryY=0.5;entryDx=0;entryDy=0;" edge="1" parent="1" source="eGmOhk9RgXZygRPjZAKJ-9" target="eGmOhk9RgXZygRPjZAKJ-12">
          <mxGeometry relative="1" as="geometry" />
        </mxCell>
        <mxCell id="eGmOhk9RgXZygRPjZAKJ-8" value="No" style="edgeStyle=orthogonalEdgeStyle;rounded=0;orthogonalLoop=1;jettySize=auto;html=1;exitX=0.5;exitY=1;exitDx=0;exitDy=0;entryX=0.5;entryY=0;entryDx=0;entryDy=0;" edge="1" parent="1" source="eGmOhk9RgXZygRPjZAKJ-9" target="eGmOhk9RgXZygRPjZAKJ-14">
          <mxGeometry relative="1" as="geometry" />
        </mxCell>
        <mxCell id="eGmOhk9RgXZygRPjZAKJ-9" value="a = 0?" style="rhombus;whiteSpace=wrap;html=1;" vertex="1" parent="1">
          <mxGeometry x="280" y="380" width="80" height="80" as="geometry" />
        </mxCell>
        <mxCell id="eGmOhk9RgXZygRPjZAKJ-10" style="edgeStyle=orthogonalEdgeStyle;rounded=0;orthogonalLoop=1;jettySize=auto;html=1;entryX=0;entryY=0.5;entryDx=0;entryDy=0;" edge="1" parent="1" source="eGmOhk9RgXZygRPjZAKJ-12" target="eGmOhk9RgXZygRPjZAKJ-16">
          <mxGeometry relative="1" as="geometry" />
        </mxCell>
        <mxCell id="eGmOhk9RgXZygRPjZAKJ-11" value="No" style="edgeStyle=orthogonalEdgeStyle;rounded=0;orthogonalLoop=1;jettySize=auto;html=1;exitX=0.5;exitY=1;exitDx=0;exitDy=0;entryX=0.5;entryY=0;entryDx=0;entryDy=0;" edge="1" parent="1" source="eGmOhk9RgXZygRPjZAKJ-12" target="eGmOhk9RgXZygRPjZAKJ-18">
          <mxGeometry relative="1" as="geometry" />
        </mxCell>
        <mxCell id="eGmOhk9RgXZygRPjZAKJ-12" value="b = 0?" style="rhombus;whiteSpace=wrap;html=1;" vertex="1" parent="1">
          <mxGeometry x="414" y="380" width="80" height="80" as="geometry" />
        </mxCell>
        <mxCell id="eGmOhk9RgXZygRPjZAKJ-13" style="edgeStyle=orthogonalEdgeStyle;rounded=0;orthogonalLoop=1;jettySize=auto;html=1;exitX=0.5;exitY=1;exitDx=0;exitDy=0;" edge="1" parent="1" source="eGmOhk9RgXZygRPjZAKJ-14">
          <mxGeometry relative="1" as="geometry">
            <mxPoint x="320" y="740" as="targetPoint" />
          </mxGeometry>
        </mxCell>
        <mxCell id="eGmOhk9RgXZygRPjZAKJ-14" value="nghiệm&amp;nbsp;&lt;div&gt;x = -b / a&lt;/div&gt;" style="shape=parallelogram;perimeter=parallelogramPerimeter;whiteSpace=wrap;html=1;fixedSize=1;" vertex="1" parent="1">
          <mxGeometry x="260" y="510" width="120" height="60" as="geometry" />
        </mxCell>
        <mxCell id="eGmOhk9RgXZygRPjZAKJ-15" style="edgeStyle=orthogonalEdgeStyle;rounded=0;orthogonalLoop=1;jettySize=auto;html=1;exitX=0.5;exitY=1;exitDx=0;exitDy=0;entryX=0.5;entryY=0;entryDx=0;entryDy=0;" edge="1" parent="1" source="eGmOhk9RgXZygRPjZAKJ-16">
          <mxGeometry relative="1" as="geometry">
            <mxPoint x="320" y="740" as="targetPoint" />
          </mxGeometry>
        </mxCell>
        <mxCell id="eGmOhk9RgXZygRPjZAKJ-16" value="pt vô số&lt;div&gt;nghiệm&lt;/div&gt;" style="shape=parallelogram;perimeter=parallelogramPerimeter;whiteSpace=wrap;html=1;fixedSize=1;textDirection=rtl;" vertex="1" parent="1">
          <mxGeometry x="540" y="390" width="120" height="60" as="geometry" />
        </mxCell>
        <mxCell id="eGmOhk9RgXZygRPjZAKJ-17" style="edgeStyle=orthogonalEdgeStyle;rounded=0;orthogonalLoop=1;jettySize=auto;html=1;exitX=0.5;exitY=1;exitDx=0;exitDy=0;" edge="1" parent="1" source="eGmOhk9RgXZygRPjZAKJ-18">
          <mxGeometry relative="1" as="geometry">
            <mxPoint x="454" y="600" as="targetPoint" />
          </mxGeometry>
        </mxCell>
        <mxCell id="eGmOhk9RgXZygRPjZAKJ-18" value="pt vô nghiệm" style="shape=parallelogram;perimeter=parallelogramPerimeter;whiteSpace=wrap;html=1;fixedSize=1;" vertex="1" parent="1">
          <mxGeometry x="394" y="510" width="120" height="60" as="geometry" />
        </mxCell>
        <mxCell id="eGmOhk9RgXZygRPjZAKJ-20" value="END" style="ellipse;whiteSpace=wrap;html=1;" vertex="1" parent="1">
          <mxGeometry x="260" y="741" width="120" height="80" as="geometry" />
        </mxCell>
      </root>
    </mxGraphModel>
  </diagram>
</mxfile>
